/* XPM */
static char *bigger[] = {
/* columns rows colors chars-per-pixel */
"32 20 3 1 ",
"  c None",
". c #252F3E",
"X c #FF9900",
/* pixels */
"  ......  ..    ..      ......  ",
"  ......  ..    ..      ......  ",
"          ..  ....  ..  ..      ",
"          ..  ....  ..  ..      ",
"  ........    ....  ..  ....    ",
"  ........    ....  ..  ....    ",
"  ..    ..  ....  ..        ..  ",
"  ..    ..  ....  ..        ..  ",
"  ........  ..    ..    ......  ",
"  ........  ..    ..    ......  ",
"                                ",
"                                ",
"                            XXXX",
"                            XXXX",
"  XX                          XX",
"  XX                          XX",
"    XXXXXX            XXXX      ",
"    XXXXXX            XXXX      ",
"          XXXXXXXXXXXX          ",
"          XXXXXXXXXXXX          "
};
