/* XPM */
static char *kube[] = {
/* columns rows colors chars-per-pixel */
"30 30 232 2 ",
"   c None",
".  c #2261E3",
"X  c #2362E3",
"o  c #2563E3",
"O  c #2564E3",
"+  c #2261E4",
"@  c #2363E4",
"#  c #2664E4",
"$  c #2665E4",
"%  c #2765E4",
"&  c #2866E4",
"*  c #2966E4",
"=  c #2967E4",
"-  c #2A67E4",
";  c #2A67E5",
":  c #2B68E4",
">  c #2B68E5",
",  c #2C69E4",
"<  c #2D69E4",
"1  c #2C68E5",
"2  c #2C69E5",
"3  c #2E6AE4",
"4  c #2E6AE5",
"5  c #2F6AE5",
"6  c #2F6BE5",
"7  c #306BE4",
"8  c #306BE5",
"9  c #306CE5",
"0  c #316CE5",
"q  c #316DE5",
"w  c #326CE5",
"e  c #326DE5",
"r  c #336DE5",
"t  c #316CE6",
"y  c #316DE6",
"u  c #316CE7",
"i  c #316DE7",
"p  c #326CE6",
"a  c #326DE6",
"s  c #326DE7",
"d  c #346EE5",
"f  c #356EE5",
"g  c #356FE5",
"h  c #346EE6",
"j  c #356FE6",
"k  c #366FE6",
"l  c #316CE8",
"z  c #316DE8",
"x  c #306CE9",
"c  c #316CE9",
"v  c #316DE9",
"b  c #326DE8",
"n  c #326DE9",
"m  c #316EE9",
"M  c #326EE8",
"N  c #326EE9",
"B  c #316DEA",
"V  c #306DEB",
"C  c #316DEB",
"Z  c #306EEA",
"A  c #316EEA",
"S  c #316FEA",
"D  c #306EEB",
"F  c #316EEB",
"G  c #306FEB",
"H  c #326EEA",
"J  c #326EEB",
"K  c #326FEB",
"L  c #316EEC",
"P  c #316FEC",
"I  c #326FEC",
"U  c #3670E6",
"Y  c #3771E6",
"T  c #3871E6",
"R  c #3A72E6",
"E  c #3A73E6",
"W  c #3D74E6",
"Q  c #3F76E7",
"!  c #3270ED",
"~  c #3370ED",
"^  c #3370EE",
"/  c #3371EE",
"(  c #3371EF",
")  c #4077E7",
"_  c #4278E7",
"`  c #4279E7",
"'  c #4479E7",
"]  c #447AE7",
"[  c #457AE7",
"{  c #467BE7",
"}  c #457BE8",
"|  c #467CE8",
" . c #477CE8",
".. c #497DE8",
"X. c #4A7EE8",
"o. c #4C7FE8",
"O. c #4D80E8",
"+. c #4E81E8",
"@. c #4F81E8",
"#. c #5283E9",
"$. c #5384E9",
"%. c #5686E9",
"&. c #5888EA",
"*. c #5A89EA",
"=. c #5C89EA",
"-. c #5C8AEA",
";. c #5E8CEA",
":. c #5F8CEA",
">. c #618EEB",
",. c #6390EB",
"<. c #6591EB",
"1. c #6A95EC",
"2. c #6B96EC",
"3. c #7199ED",
"4. c #7299EC",
"5. c #729AED",
"6. c #749CED",
"7. c #779EED",
"8. c #7AA0EE",
"9. c #7CA2EE",
"0. c #7DA2EE",
"q. c #80A4EE",
"w. c #81A5EF",
"e. c #83A6EF",
"r. c #84A7EF",
"t. c #85A7EF",
"y. c #85A8EF",
"u. c #86A8EF",
"i. c #87A9EF",
"p. c #87A9F0",
"a. c #8BABF0",
"s. c #8CACF0",
"d. c #8FAFF0",
"f. c #90AFF0",
"g. c #91AFF0",
"h. c #93B1F1",
"j. c #96B4F1",
"k. c #99B5F1",
"l. c #99B6F1",
"z. c #9AB6F2",
"x. c #9AB7F2",
"c. c #9CB8F2",
"v. c #9DB8F2",
"b. c #9EB9F2",
"n. c #9EBAF2",
"m. c #A0BAF2",
"M. c #A0BBF2",
"N. c #A1BCF2",
"B. c #A1BCF3",
"V. c #A3BDF3",
"C. c #A4BEF3",
"Z. c #A7C0F3",
"A. c #A8C0F3",
"S. c #A9C2F4",
"D. c #AAC2F4",
"F. c #AAC3F4",
"G. c #ADC4F4",
"H. c #AEC4F4",
"J. c #AEC5F4",
"K. c #AFC6F4",
"L. c #B0C6F4",
"P. c #B1C6F4",
"I. c #B0C7F4",
"U. c #B1C7F4",
"Y. c #B2C7F4",
"T. c #B4C9F5",
"R. c #B5CAF5",
"E. c #B6CAF5",
"W. c #B7CBF5",
"Q. c #B8CCF5",
"!. c #B9CDF6",
"~. c #BACDF6",
"^. c #BACEF6",
"/. c #C0D1F6",
"(. c #C2D3F6",
"). c #C2D3F7",
"_. c #C5D5F7",
"`. c #CCDAF7",
"'. c #C9D8F8",
"]. c #CAD9F8",
"[. c #CDDAF8",
"{. c #CEDBF8",
"}. c #D1DEF8",
"|. c #D3DFF9",
" X c #D3E0F9",
".X c #D5E0F9",
"XX c #D6E2F9",
"oX c #D7E2F9",
"OX c #D8E3F9",
"+X c #D9E3F9",
"@X c #D9E4F9",
"#X c #DCE5FA",
"$X c #DCE6FA",
"%X c #DEE7FA",
"&X c #DFE7FA",
"*X c #DFE8FA",
"=X c #E1E9FA",
"-X c #E3EAFA",
";X c #E2EAFB",
":X c #E4EBFB",
">X c #E5EBFB",
",X c #E5ECFB",
"<X c #E7EDFB",
"1X c #E7EEFB",
"2X c #E8EEFB",
"3X c #EBF0FB",
"4X c #EBF0FC",
"5X c #EDF1FC",
"6X c #EEF2FC",
"7X c #EFF3FC",
"8X c #F0F4FC",
"9X c #F1F5FD",
"0X c #F2F5FC",
"qX c #F3F5FC",
"wX c #F4F6FD",
"eX c #F4F7FD",
"rX c #F6F8FD",
"tX c #F7F9FD",
"yX c #F8FAFD",
"uX c #F9FBFD",
"iX c #FAFBFD",
"pX c #F9FAFE",
"aX c #FAFBFE",
"sX c #FBFCFD",
"dX c #FBFCFE",
"fX c #FCFCFE",
"gX c #FCFDFE",
"hX c #FDFDFE",
"jX c #FDFEFE",
"kX c #FEFEFE",
"lX c #FFFFFE",
"zX c white",
/* pixels */
"                            n n                             ",
"                      L ! / ! n ^ n L                       ",
"                  n n / ! 9 7 7 k n ^ L n                   ",
"              L n ( n 6 7 7 E E 9 9 9 h / L /               ",
"          n n ( h 9 9 9 7 : Z.Z.= 9 h 9 9 n ^ n n           ",
"      n L / h 9 n 9 k 9 7 : F.F.= 9 n 9 9 k 9 n / L n       ",
"      / n 9 9 9 9 h 9 8 : @ V.V.+ = 4 k 9 k 8 9 9 h (       ",
"    n / 9 9 k 8 9 9 = ] y.^.9X9X^.e._ = 9 9 4 k 9 9 ^ L     ",
"    n L 7 U `.s.= 4 y.7XzXaXdXdXdXzX3Xw.< O g.`.k 8 / n     ",
"    n h 9 < w.<Xj.F.zX;Xw...#X#XX.r.<XzXF.l.2X0.8 9 9 n     ",
"    n 9 9 9 & #.wXzX|.T O 7 ;X;X9 O W oXzX9X@.& 9 9 9 n     ",
"    ^ 9 9 k < O.9XzXwXh.8 k 2X<Xk 9 h.rXzX8Xo.< 9 k 9 /     ",
"  n / 9 9 9 : V.zXa.#XzX/.3.wXwX3./.zX#Xs.zXV.& 9 k 8 / n   ",
"  n n 9 k 7 k ;X#X< X.oXzXzXzXzXzXzXoX{ < #X*Xk 8 9 9 n n   ",
"  9 9 9 9 < [ uXH.O X [ 5XzXH.H.zX3X[ X O Y.aX[ 8 9 9 n 9   ",
"  / 9 k 9 < O.zXV.] 8.Q.dX5X9 9 3XaX^.8.] V.zXo.4 9 9 k /   ",
"n ^ 9 9 4 1 >.aX5XrXzXzXzXdXm.m.aXzXzXzXuX5XaX>.4 : 9 9 ^ n ",
"n / 8 k F.|.;XzXzX_.n.7.h.zXzXzXzXg.6.z./.zXzX>XoXH.k 8 L n ",
"9 9 9 T m.a.[ P.dX;.X + r.zXOX#XzXu.. X &.zXP.[ t.z.T 9 9 n ",
"n L 9 9 = = & $.aX}.k 4 OXzX;.&.uXOX7 k `.aX%.& = 1 9 9 ^ 9 ",
"  L h 9 9 9 8 1 l.zXE.3.zXE.= = E.zX4.P.zXn.& 7 9 k 8 n /   ",
"    I 9 9 k 9 8 9 U.zXaXaX<.4 4 <.aXwXzXE.r 4 k 9 k 9 L     ",
"    L ^ 9 9 h n 8 4 l.zXzX8X+X+X7XzXzXn.8 8 9 9 9 9 / n     ",
"      n ^ 8 k 9 9 % 1.<Xl.'.;X;X].l.>X2.= 9 9 k 4 / n       ",
"        n n 9 9 9 T @Xy.+ 4 U U 4 X r.+XT 9 k 9 n n         ",
"          / n 9 4 &.>X .4 8 9 9 9 4 [ ;X$.4 9 n n           ",
"            ^ 9 9 k ) 8 9 k 9 9 k 9 8 ) k 8 9 /             ",
"            n ^ 9 9 8 9 9 n h k 9 9 9 8 9 8 / n             ",
"              n ^ 9 9 h n 9 n 9 9 h 9 k 8 / n               ",
"                L k 9 9 9 k h 9 9 n k 9 n L                 "
};
