/* XPM */
static char *PythonIcon_7[] = {
/* columns rows colors chars-per-pixel */
"32 32 56 1 ",
"  c None",
". c #735A24",
"X c #745B24",
"o c #B28B38",
"O c #BB933B",
"+ c #BD943C",
"@ c #CA9E40",
"# c #D6A744",
"$ c #D6A844",
"% c #DAAB45",
"& c #D9B257",
"* c #E5B64F",
"= c #E8B84F",
"- c #EFBB4C",
"; c #E8BC56",
": c #F7C14E",
"> c #F7C24E",
", c #FAC44F",
"< c #EDC057",
"1 c #F8C350",
"2 c #FCC650",
"3 c #FEC750",
"4 c #FFC851",
"5 c #FFC852",
"6 c #FFC955",
"7 c #FFCA59",
"8 c #FFCA5A",
"9 c #FFCB5E",
"0 c #316892",
"q c #3B7DB0",
"w c #3C7FB2",
"e c #7D9C9D",
"r c #7FA0A2",
"t c #428BC4",
"y c #4490CA",
"u c #4592CD",
"i c #4E95C9",
"p c #4D95CB",
"a c #4B95CD",
"s c #4694D0",
"d c #4795D1",
"f c #4895D1",
"g c #4996D1",
"h c #4B97D2",
"j c #509AD3",
"k c #519AD3",
"l c #529BD3",
"z c #539CD4",
"x c #559CD4",
"c c #9AA285",
"v c #A1A785",
"b c #F5EBD6",
"n c #FFF3D9",
"m c #D4E2EC",
"M c #D4E2ED",
"N c #D7E8F5",
/* pixels */
"                                ",
"                                ",
"                                ",
"                                ",
"             ljjljl             ",
"           lhdddddddl           ",
"          jdNNdddddddj          ",
"          hdMMdddddddh          ",
"          ddttdddddddd          ",
"          dddddddddddd          ",
"      ljjldddddddddddd7779      ",
"     ldddddddddddddddd44447     ",
"     ddddddddddddddddd44444     ",
"    hddddddddddddddddp444446    ",
"    hddddddddddddddddr444444    ",
"    dddddddddddddddie;444444    ",
"    ddddddac&******;14444444    ",
"    ydddddv34444443,4444444>    ",
"    qddddd<4444444444444444%    ",
"     ddddd34444444444444444     ",
"     qdddd3444444444444444$     ",
"      0udd44444444444444,o      ",
"          444444444444          ",
"          444444444444          ",
"          ,4444444nn4,          ",
"          O4444444bb4+          ",
"           #444344--$           ",
"            .@>33>@X            ",
"                                ",
"                                ",
"                                ",
"                                "
};
