/* XPM */
static char *PythonIcon_8[] = {
/* columns rows colors chars-per-pixel */
"24 24 56 1 ",
"  c None",
". c #765C25",
"X c #7F6428",
"o c #204460",
"O c #234A68",
"+ c #A27F33",
"@ c #BB923B",
"# c #C49A3E",
"$ c #958C5E",
"% c #EAB74A",
"& c #EBB84A",
"* c #EBBA4F",
"= c #EFBB4C",
"- c #E5B854",
"; c #EDBB50",
": c #F5C353",
"> c #FBC550",
", c #FDC750",
"< c #FEC750",
"1 c #FEC851",
"2 c #FFC851",
"3 c #FEC853",
"4 c #FFC956",
"5 c #FECA58",
"6 c #F5C865",
"7 c #326B96",
"8 c #7E9D9F",
"9 c #7FA1A3",
"0 c #4188C0",
"q c #428CC4",
"w c #438DC6",
"e c #4592CD",
"r c #4B95CC",
"t c #4A94CD",
"y c #4895CF",
"u c #4694D0",
"i c #4795D1",
"p c #4996D1",
"a c #4C98D2",
"s c #4D98D2",
"d c #4F98D2",
"f c #4F99D3",
"g c #549CD4",
"h c #5FA3D7",
"j c #A1A684",
"k c #B5B281",
"l c #A1AD91",
"z c #A2AE90",
"x c #A3AE90",
"c c #87A6A4",
"v c #ECCD8C",
"b c #FEDC92",
"n c #8BB9DE",
"m c #8CBDE2",
"M c #FEF7E8",
"N c #E5EDF4",
/* pixels */
"                        ",
"                        ",
"                        ",
"         gffffg         ",
"        pmhieiip        ",
"        iNniiiii        ",
"        iweiiiii        ",
"       tiiuiueiic       ",
"    aiiiiiiiiiiix224    ",
"   fuuiieiuiuuuiz<2<5   ",
"   puuiiiiuiiiuik<2<2   ",
"   iuuieiiuiiet8:<2<2   ",
"   iiiiij-*****>2222<   ",
"   quui9<2<2,,<2<<2<*   ",
"   7iiiz222222222222@   ",
"    0uiz<2<2<<<2<<2&    ",
"     oO$<2<2<<<2#X.     ",
"        22222222        ",
"        <2<2<bM2        ",
"        %2<2<6v%        ",
"         +&<<&+         ",
"                        ",
"                        ",
"                        "
};
