/* XPM */
static char *PythonIcon_9[] = {
/* columns rows colors chars-per-pixel */
"16 16 32 1 ",
"  c None",
". c #C79C3F",
"X c #CFA241",
"o c #DBAC45",
"O c #EAB84A",
"+ c #ECB94B",
"@ c #EDBA4B",
"# c #EFBE52",
"$ c #F2BF50",
"% c #F3BF50",
"& c #FAC652",
"* c #FDC650",
"= c #FFC851",
"- c #FFC954",
"; c #FFC955",
": c #FFC956",
"> c #3C7FB2",
", c #4189C0",
"< c #4490CA",
"1 c #4693CF",
"2 c #4895CF",
"3 c #4795D1",
"4 c #4996D1",
"5 c #4A96D1",
"6 c #4B97D1",
"7 c #4B97D2",
"8 c #4C98D2",
"9 c #4E99D3",
"0 c #8BA399",
"q c #A1A98A",
"w c #FAEFD7",
"e c #D5E5F1",
/* pixels */
"                ",
"                ",
"      9669      ",
"     6e3336     ",
"     3<3333     ",
"   86333333::   ",
"  633333336*=:  ",
"  333333320===  ",
"  133q#&$$*==*  ",
"  >63&&======o  ",
"   ,3*======O   ",
"     *=====     ",
"     @*==w@     ",
"      X**.      ",
"                ",
"                "
};
