/* XPM */
static char *df1391e9a20041a18a2b78e42a5c2825Mg6E82IYv3jZUYEB[] = {
/* columns rows colors chars-per-pixel */
"16 16 128 2 ",
"   c #A71214",
".  c #AA1315",
"X  c #AD1416",
"o  c #B61619",
"O  c #B31518",
"+  c #B01517",
"@  c #BA171A",
"#  c #BD181A",
"$  c #C0191B",
"%  c #B5181B",
"&  c #C61B1D",
"*  c #C31A1C",
"=  c #CF1D20",
"-  c #CC1C1F",
";  c #C91C1E",
":  c #D31E21",
">  c #D61F22",
",  c #B71B1D",
"<  c #B01A1D",
"1  c #AA191B",
"2  c #480B0C",
"3  c #A11A1B",
"4  c #98191B",
"5  c #7E1517",
"6  c #BD2023",
"7  c #901A1B",
"8  c #5B1213",
"9  c #8A1C1D",
"0  c #711A1B",
"q  c #BD2C2F",
"w  c #CE3234",
"e  c #852122",
"r  c #6D1B1C",
"t  c #D33D40",
"y  c #4D1819",
"u  c #752526",
"i  c #C94243",
"p  c #561D1E",
"a  c #DC4B4D",
"s  c #C54D4F",
"d  c #64292A",
"f  c #D86263",
"g  c #E46A6C",
"h  c #D56768",
"j  c #CE6E6F",
"k  c #E37A7C",
"l  c #E0898A",
"z  c #E29091",
"x  c #D78E8F",
"c  c #EBA2A3",
"v  c #EAB1B2",
"b  c #EDB8B9",
"n  c #E3B0B1",
"m  c #2F0B0C",
"M  c #502A2B",
"N  c #402223",
"B  c #F6D2D3",
"V  c #F3D5D6",
"C  c #2B1111",
"Z  c #251414",
"A  c #392A2A",
"S  c #2D2727",
"D  c #F8DEDE",
"F  c #F2DCDC",
"G  c #FAE9E9",
"H  c #FCF6F6",
"J  c white",
"K  c #E7E7E7",
"L  c gray",
"P  c #A0A0A0",
"I  c #838383",
"U  c #646464",
"Y  c #5B5B5B",
"T  c gray26",
"R  c #282828",
"E  c gray14",
"W  c #202020",
"Q  c #1B1B1B",
"!  c gray9",
"~  c #131313",
"^  c gray6",
"/  c gray4",
"(  c #060606",
")  c None",
"_  c black",
"`  c black",
"'  c black",
"]  c black",
"[  c black",
"{  c black",
"}  c black",
"|  c black",
" . c black",
".. c black",
"X. c black",
"o. c black",
"O. c black",
"+. c black",
"@. c black",
"#. c black",
"$. c black",
"%. c black",
"&. c black",
"*. c black",
"=. c black",
"-. c black",
";. c black",
":. c black",
">. c black",
",. c black",
"<. c black",
"1. c black",
"2. c black",
"3. c black",
"4. c black",
"5. c black",
"6. c black",
"7. c black",
"8. c black",
"9. c black",
"0. c black",
"q. c black",
"w. c black",
"e. c black",
"r. c black",
"t. c black",
"y. c black",
"u. c black",
/* pixels */
"J J J J J J J J J J J J D c a > ",
"J J J J J J H V v l f w - = : > ",
"F n x j s q @ # $ * & ; - = : > ",
"  . X + O o @ # $ * & ; - = : > ",
"  . X + O o @ # $ * & ; - = : > ",
"  . X + O o @ # $ * & ; - = : g ",
"  . X + O o @ # $ * & ; < 5 m Y ",
"  . X + O o % 3 9 r y Z ^ / ( 2 ",
"4 e u d M A R E W Q ! ~ C 8 1 > ",
"K L P I U T S N p 0 7 , - = : > ",
"F n x j s q @ # $ * & ; - = : > ",
"  . X + O o @ # $ * & ; - = : > ",
"  . X + O o @ # $ * & ; - = : > ",
"  . X + O o @ # $ * & ; - = : g ",
"  . X + O o @ # $ * & ; t k B J ",
"  . X + O o 6 i h z b G J J J J "
};
