/* XPM */
static char *TFIcon_2[] = {
/* columns rows colors chars-per-pixel */
"16 16 17 1 ",
"  c None",
". c #FF7400",
"X c #FF7800",
"o c #FF7900",
"O c #FF7C00",
"+ c #FF8000",
"@ c #FF8100",
"# c #FF8400",
"$ c #FF8700",
"% c DarkOrange",
"& c #FF8F00",
"* c #FF9200",
"= c #FF9300",
"- c #FF9700",
"; c #FF9A00",
": c #FF9B00",
"> c #FF9F00",
/* pixels */
"                ",
"       $%       ",
"     @#$%%=     ",
"   oO@#$%*=;;   ",
"  .oO@#$%%*;;>  ",
"  ..O@#$%*==:>  ",
"  .o @#$%**  >  ",
"     @##%%*;    ",
"     @#$%**=    ",
"     @#$%%*;    ",
"     @#$%%*     ",
"     @#$%**     ",
"     @#$%%=     ",
"      #$%*      ",
"       $%       ",
"                "
};
