/* XPM */
static char *TFIcon_0[] = {
/* columns rows colors chars-per-pixel */
"48 48 41 1 ",
"  c None",
". c #FF7200",
"X c #FF7300",
"o c #FF7400",
"O c #FF7500",
"+ c #FF7600",
"@ c #FF7700",
"# c #FF7800",
"$ c #FF7900",
"% c #FF7B00",
"& c #FF7C00",
"* c #FF7D00",
"= c #FF7E00",
"- c #FF7F00",
"; c #FF8000",
": c #FF8100",
"> c #FF8200",
", c #FF8400",
"< c #FF8500",
"1 c #FF8600",
"2 c #FF8800",
"3 c #FF8B00",
"4 c #FF8D00",
"5 c #FF8E00",
"6 c #FF8F00",
"7 c #FF9100",
"8 c #FF9200",
"9 c #FF9300",
"0 c #FF9400",
"q c #FF9500",
"w c #FF9600",
"e c #FF9700",
"r c #FF9800",
"t c #FF9A00",
"y c #FF9B00",
"u c #FF9C00",
"i c #FF9D00",
"p c #FF9E00",
"a c #FF9F00",
"s c #FFA000",
"d c #FFA100",
/* pixels */
"                                                ",
"                                                ",
"                                                ",
"                      2  4                      ",
"                     <2  444                    ",
"                   <<<2  4444                   ",
"                 ;<<<<2  244949                 ",
"               ;;;;<<22  44449900               ",
"              &&;;;<<<2  24444990t0             ",
"            &&&;;;<;<<2  444999900tt            ",
"          $$&&&;;;<<<22  2444999000tta          ",
"        oo$$&&&;;;;<<<2  44944990t0tttta        ",
"       oo$$$&&&;;;;<<22  24499990t00tttass      ",
"     ..oo$$$$&&&;<;<<<2  444499900ttttatsss     ",
"     ..oo$$$&&&;;;<<<<2  444444900t0tttasss     ",
"     .ooo$o$&&&;;;;<<<2  44499999t0tttaasss     ",
"     .oooo$$&&&;;;<<<22  44494990ttttttaaas     ",
"     ..oo$$$&&  ;;;<<<2  2444999  0tttataas     ",
"     ..oo$o$    ;<;<<<2  2444999    ttaasss     ",
"     .ooo$$     ;;;<<22  4499499     ttasss     ",
"     .ooo       ;;<<<<2  4444999       aass     ",
"     o.         ;;;<<<2  44449990        ss     ",
"                ;;<<<<2  2449449000             ",
"                ;;;<<<2  444499900tt            ",
"                ;;;<<<2  24444990t00t           ",
"                ;;<;<<2  444999900ttt           ",
"                ;;<<<22  2444999000tt           ",
"                ;;;<<<2  449449900ttt           ",
"                ;;;<<22  24499990t00t           ",
"                ;<;<<<2  4444999 0ttt           ",
"                ;;<<<<2  4444449  0tt           ",
"                ;;;<<<2  4449999    t           ",
"                ;;<<<<2  2494999                ",
"                ;;;<<22  4444999                ",
"                ;;;<<<2  2444999                ",
"                ;;<;<<2  4444999                ",
"                ;;;<<<2  4494949                ",
"                ;<<<<22  2444999                ",
"                ;;;<<<2  4444999                ",
"                ;;;<<22  4444999                ",
"                ;;<<<<2  4444490                ",
"                 ;;<<22  444999                 ",
"                   <<<2  2444                   ",
"                     <2  44                     ",
"                      2  2                      ",
"                                                ",
"                                                ",
"                                                "
};
