/* XPM */
static char *TFIcon_1[] = {
/* columns rows colors chars-per-pixel */
"32 32 25 1 ",
"  c None",
". c #FF7300",
"X c #FF7500",
"o c #FF7700",
"O c #FF7900",
"+ c #FF7B00",
"@ c #FF7D00",
"# c #FF7F00",
"$ c #FF8100",
"% c #FF8300",
"& c #FF8500",
"* c #FF8700",
"= c #FF8800",
"- c #FF8B00",
"; c DarkOrange",
": c #FF8E00",
"> c #FF9000",
", c #FF9200",
"< c #FF9400",
"1 c #FF9600",
"2 c #FF9800",
"3 c #FF9A00",
"4 c #FF9C00",
"5 c #FF9E00",
"6 c #FFA000",
/* pixels */
"                                ",
"                                ",
"                 =              ",
"             **=:::             ",
"           $$**==::>>           ",
"         ##$$**==::>>11         ",
"        O##$$**=:=>>1>22        ",
"      oOO##$$**==::>>11224      ",
"    .ooOO##$$**==::>>>124446    ",
"    ..ooO##$$**=:::>11122466    ",
"    .ooO#O#$$**==::>>1124466    ",
"    .ooOO# $$**=:=:>> 122446    ",
"    .ooO   $$**===:>1   4466    ",
"    .o     $$**=:::>>     46    ",
"           $$$*==::>>1          ",
"           $***=:::>>112        ",
"           $$**==::>>1122       ",
"           $$**=:=:>>1124       ",
"           $$**=:=:>>1122       ",
"           $$**==::>>1124       ",
"           $$**=:=:>>  22       ",
"           $$**=:::>>           ",
"           $$**==::>1           ",
"           $$**=:=:>>           ",
"           $$**=:=:>1           ",
"           $$**==::>>           ",
"           $$$*=:=:>>           ",
"           $***=:::>1           ",
"             **==::             ",
"                                ",
"                                ",
"                                "
};
